<svg version="1.0" xmlns="http://www.w3.org/2000/svg" width="256.000000" height="256.000000"
     viewBox="0 0 256.000000 256.000000" preserveAspectRatio="xMidYMid meet">
 <g transform="translate(0.000000,256.000000) scale(0.100000,-0.100000)" stroke="none">
  <path fill="#4285F4" d="M77 2482 l-77 -77 0 -1125 0 -1125 78 -78 77 -77 703 0 702 0 0 165 0 165 -90 0 -90 0 -220 440 -220 440 0 70 0 70 220 440 220 440 90 0 90 0 0 165 0 165 -703 0 -702 0 -78 -78z m983 -255 c0 -2 -90 -182 -200 -399 l-200 -395 0 -153 0 -152 198 -391 c108 -215 199 -394 200 -399 2 -4 -151 -8 -339 -8 l-343 0 -28 27 -28 27 0 890 0 890 32 33 32 33 338 0 c186 0 338 -2 338 -3z"/>
  <path fill="#34BAED" d="M1720 2390 l0 -170 235 -470 235 -470 -235 -470 -235 -470 0 -170 0 -170 100 0 100 0 320 640 320 640 -320 640 -320 640 -100 0 -100 0 0 -170z"/>
  <path fill="#EA4335" d="M1541 1888 c-43 -306 -145 -520 -280 -584 -32 -15 -34 -18 -17 -28 159 -95 249 -272 297 -589 12 -82 29 -103 29 -37 0 61 28 191 62 295 57 169 145 294 226 319 31 10 28 22 -13 42 -55 26 -122 109 -169 208 -59 123 -106 308 -106 412 0 84 -15 64 -29 -38z"/>
 </g>
</svg>