<svg width="2017" height="1032" xmlns="http://www.w3.org/2000/svg" version="1.1">
 <g>
  <title>Layer 1</title>
  <path id="svg_1" fill="#0E0D0D" d="m1767,4l19,5l13,5l21,10l11,7l11,7l9,6l10,10l13,13l15,15l12,16l8,17l108,9l-70,59l-23,29l-12,23l-16,36l-126,496l-4,12l-4,12l-4,11l-10,19l-9,19l-5,9l-8,12l-7,11l-9,13l-28,28l-8,8l-24,24l-16,12l-13,8l-18,11l-16,8l-25,12l-18,7l-22,8l-12,4l-11,3l-14,3l-19,4l-9,2l-27,4l-15,0l-643,1l-18,-2l-11,-4l-12,-4l-24,-12l-10,-6l-12,-9l-34,-34l-6,-10l-5,-8l-10,-19l-8,-18l-4,-16l-3,-11l0,-59l69,-497l7,-8l14,-2l10,5l11,11l7,12l-64,492l0,38l1,16l7,16l10,-5l259,-220l-1,-6l-353,-628l43,-32l424,0l34,4l15,3l20,5l16,4l17,6l18,6l32,16l15,8l13,8l18,12l14,10l9,8l243,291l0,7l-3,3l-2,10l-5,4l-7,3l-11,1l-9,0l-198,-236l-8,-12l-37,-37l-15,-11l-12,-8l-12,-8l-14,-7l-11,-7l-24,-10l-10,-4l-35,-10l-26,-5l-17,-3l-409,-1l361,644l44,29l17,9l23,11l10,3l23,8l17,5l27,4l55,0l23,-4l20,-4l12,-4l12,-4l44,-21l13,-8l7,-4l37,-25l223,-193l11,-10l7,-7l8,-5l9,-7l14,-9l9,-5l9,-6l5,-3l20,-8l12,-4l12,-4l13,-3l6,-1l18,-3l25,-2l47,-183l8,-21l12,-20l13,-19l17,-26l-22,-9l-22,-29l-12,-16l-22,-22l-15,-11l-32,-16l-12,-4l-21,-4l-56,0l-15,4l-21,7l-19,9l-8,6l-18,12l-32,32l-54,86l-6,12l-7,8l-2,1l-17,0l-12,-6l-3,-3l-4,-9l0,-10l68,-112l41,-41l10,-6l10,-7l20,-11l19,-9l13,-5l17,-5l18,-1l82,1zm11,482l-10,1l-18,5l-22,7l-23,12l-12,8l-9,6l-8,7l-204,172l172,176l4,-2l11,-14l14,-16l7,-11l9,-13l15,-30l8,-17l8,-25l66,-260l0,-5l-1,-1l-7,0zm-1067,461l11,11l10,7l21,10l11,6l15,4l618,0l13,-1l22,-3l25,-5l12,-3l17,-4l14,-5l11,-4l11,-3l11,-4l46,-23l9,-6l16,-9l-2,-4l-170,-170l-34,26l-22,14l-19,10l-24,11l-30,10l-16,4l-1,1l-20,4l-24,4l-65,0l-29,-5l-20,-4l-20,-6l-23,-8l-17,-8l-19,-10l-15,-8l-10,-7l-11,-7l-7,-6l-17,-14l-17,-13l-261,218z"/>
  <path id="svg_2" fill="#0E0D0D" d="m215,453l368,0l11,11l2,7l0,9l-2,7l-7,8l-5,4l-368,0l-11,-11l-2,-3l0,-12l6,-12l5,-3l3,-5z"/>
  <path id="svg_3" fill="#0E0D0D" d="m299,596l257,0l5,3l7,6l4,9l0,15l-5,9l-4,4l-6,2l-1,1l-11,1l-245,0l-7,-4l-8,-7l-3,-4l-3,-6l0,-8l6,-11l7,-6l7,-4z"/>
  <path id="svg_4" fill="#0E0D0D" d="m316,742l213,0l10,4l3,4l3,7l0,18l-7,8l-5,5l-8,1l-210,0l-6,-2l-8,-4l-4,-7l-3,-6l0,-9l6,-11l5,-1l2,-6l9,-1z"/>
  <path id="svg_5" fill="#0E0D0D" d="m443,306l154,0l11,6l6,10l1,4l0,12l-6,11l-3,3l-7,3l-2,1l-155,0l-11,-7l-5,-6l-1,-2l0,-19l4,-7l6,-5l8,-4z"/>
  <path id="svg_6" fill="#0E0D0D" d="m13,453l121,0l12,12l1,2l0,18l-4,9l-8,4l-4,1l-117,0l-5,-4l-6,-9l-3,-6l1,-10l5,-10l7,-7z"/>
  <path id="svg_7" fill="#0E0D0D" d="m158,742l71,0l5,3l6,8l4,9l0,9l-5,9l-5,5l-5,2l-1,1l-19,1l-55,0l-4,-2l-7,-8l-3,-3l-1,-9l0,-7l3,-7l10,-10l6,-1z"/>
  <path id="svg_8" fill="#0E0D0D" d="m160,596l51,0l11,6l6,11l1,13l-1,7l-9,9l-7,3l-10,1l-45,0l-7,-4l-7,-6l-4,-11l0,-7l3,-9l3,-6l4,-3l10,-3l1,-1z"/>
  <path id="svg_9" fill="#0E0D0D" d="m304,306l49,0l11,6l4,5l3,7l1,9l-2,8l-5,8l-3,3l-10,4l-49,0l-11,-7l-5,-5l-1,-3l0,-20l6,-8l10,-6l2,-1z"/>
  <path id="svg_10" fill="#0E0D0D" d="m1735,147l18,1l8,7l5,6l4,9l0,18l-6,11l-8,7l-7,3l-25,0l-5,-3l-8,-7l-3,-4l-4,-10l0,-11l3,-9l3,-6l7,-7l9,-4l9,-1z"/>
 </g>

</svg>