<svg version="1.0" xmlns="http://www.w3.org/2000/svg" width="256.000000" height="256.000000"
     viewBox="0 0 256.000000 256.000000" preserveAspectRatio="xMidYMid meet">
 <g transform="translate(0.000000,256.000000) scale(0.100000,-0.100000)" stroke="none">
  <path fill="#34BAED" d="M77 2482 l-77 -77 0 -1125 0 -1125 78 -78 77 -77 703 0 702 0 0 165 0 165 -220 0 -220 0 -220 440 -220 440 0 70 0 70 220 440 220 440 220 0 220 0 0 165 0 165 -703 0 -702 0 -78 -78z m723 -255 c0 -2 -90 -182 -200 -399 l-200 -395 0 -153 0 -152 198 -391 c108 -215 198 -394 200 -399 2 -4 -92 -8 -209 -8 l-213 0 -28 27 -28 27 0 890 0 890 32 33 32 33 208 0 c114 0 208 -2 208 -3z"/>
  <path fill="#4285F4" d="M1720 2390 l0 -170 235 -470 235 -470 -235 -470 -235 -470 0 -170 0 -170 100 0 100 0 320 640 320 640 -320 640 -320 640 -100 0 -100 0 0 -170z"/>
  <path fill="#4285F4" d="M1339 1888 c5 -13 74 -155 155 -316 80 -161 146 -299 146 -306 0 -18 -291 -610 -301 -614 -5 -2 -9 -8 -9 -13 0 -5 72 -9 165 -9 l165 0 160 320 160 320 -160 320 -160 320 -165 0 -165 0 9 -22z"/>
  <path fill="#FBBC05" d="M1136 1833 c-9 -99 -51 -246 -98 -343 -44 -92 -134 -194 -182 -206 -33 -8 -33 -20 0 -28 48 -12 138 -114 182 -206 47 -97 89 -244 98 -342 4 -38 10 -68 14 -68 4 0 10 30 14 68 9 98 51 245 98 342 44 92 134 194 182 206 33 8 33 20 0 28 -48 12 -138 114 -182 206 -47 97 -89 244 -98 343 -4 37 -10 67 -14 67 -4 0 -10 -30 -14 -67z"/>
 </g>
</svg>