<svg version="1.0" xmlns="http://www.w3.org/2000/svg" width="256.000000" height="256.000000"
     viewBox="0 0 256.000000 256.000000" preserveAspectRatio="xMidYMid meet">
 <g transform="translate(0.000000,256.000000) scale(0.100000,-0.100000)" stroke="none">
  <path fill="#34BAED" d="M0 1280 l0 -1280 830 0 830 0 0 165 0 165 -270 0 -270 0 -237 475 -238 475 238 475 237 475 270 0 270 0 0 165 0 165 -830 0 -830 0 0 -1280z m798 942 c-1 -5 -109 -219 -238 -475 l-235 -467 235 -467 c129 -257 236 -471 238 -475 2 -4 -105 -8 -237 -8 l-241 0 0 950 0 950 241 0 c132 0 239 -4 237 -8z"/>
  <path fill="#4285F4" d="M1720 2390 l0 -170 235 -470 235 -470 -235 -470 -235 -470 0 -170 0 -170 100 0 100 0 320 640 320 640 -320 640 -320 640 -100 0 -100 0 0 -170z"/>
  <path fill="#4285F4" d="M1339 1888 c5 -13 74 -155 155 -316 80 -161 146 -299 146 -306 0 -18 -291 -610 -301 -614 -5 -2 -9 -8 -9 -13 0 -5 72 -9 165 -9 l165 0 160 320 160 320 -160 320 -160 320 -165 0 -165 0 9 -22z"/>
  <path fill="#FBBC05" d="M1136 1833 c-9 -99 -51 -246 -98 -343 -44 -92 -134 -194 -182 -206 -33 -8 -33 -20 0 -28 48 -12 138 -114 182 -206 47 -97 89 -244 98 -342 4 -38 10 -68 14 -68 4 0 10 30 14 68 9 98 51 245 98 342 44 92 134 194 182 206 33 8 33 20 0 28 -48 12 -138 114 -182 206 -47 97 -89 244 -98 343 -4 37 -10 67 -14 67 -4 0 -10 -30 -14 -67z"/>
 </g>
</svg>