<svg width="2048" height="1035" xmlns="http://www.w3.org/2000/svg" version="1.1">
 <g>
  <title>Layer 1</title>
  <path d="m1766,-1l16,4l7,3l12,2l6,2l7,3l21,10l11,7l4,3l7,4l3,3l6,3l10,10l6,5l7,8l15,15l3,6l9,10l7,14l1,3l108,9l-58,57l-2,0l-2,4l-2,0l-2,4l-6,5l-6,7l-2,0l-2,4l-6,5l-3,4l-2,5l-7,7l-1,2l-2,0l-2,7l-12,24l-4,12l-126,496l-2,2l-2,10l-2,2l-2,10l-2,2l-2,9l-10,19l-9,19l-5,9l-5,6l-3,6l-5,6l-2,5l-6,7l-3,6l-28,28l-8,8l-24,24l-7,3l-9,9l-8,4l-5,4l-12,6l-6,5l-16,8l-25,12l-7,2l-11,5l-15,5l-7,3l-9,2l-3,2l-11,3l-14,3l-6,2l-13,2l-9,2l-10,1l-2,2l-15,1l-15,0l-643,1l-18,-2l-4,-2l-7,-2l-12,-4l-24,-12l-10,-6l-12,-9l-34,-34l-6,-10l-5,-8l-10,-19l-8,-18l-4,-16l-3,-11l0,-59l69,-497l7,-8l3,-2l11,0l10,5l11,11l1,2l6,10l-64,492l0,38l1,16l3,5l4,8l0,3l5,-3l5,-2l259,-220l-1,-6l-353,-628l-1,-7l44,-25l424,0l34,4l2,2l13,1l9,3l11,2l5,2l11,2l9,3l8,3l18,6l32,16l15,8l8,4l5,4l8,5l10,7l8,7l6,3l5,4l0,2l4,2l243,291l0,7l-3,3l-2,10l-5,4l-7,3l-11,1l-9,0l-198,-236l-5,-7l-3,-5l-37,-37l-6,-3l-9,-8l-6,-3l-6,-5l-6,-3l-6,-5l-14,-7l-5,-4l-6,-3l-8,-3l-4,-2l-12,-5l-10,-4l-35,-10l-26,-5l-17,-3l-409,-1l361,644l44,29l17,9l23,11l10,3l9,3l7,3l7,2l2,1l15,4l27,4l55,0l3,-2l5,-1l15,-1l3,-2l17,-2l3,-2l9,-2l2,-2l10,-2l2,-2l9,-2l16,-8l17,-9l8,-4l5,-4l7,-4l37,-25l223,-193l2,0l1,-3l8,-7l7,-7l8,-5l9,-7l14,-9l9,-5l9,-6l5,-3l9,-2l11,-6l9,-2l3,-2l9,-2l3,-2l11,-1l2,-2l6,-1l16,-1l2,-2l25,-2l47,-183l5,-12l3,-9l6,-11l6,-9l7,-10l6,-9l5,-8l5,-3l6,-4l1,-7l0,-4l-7,-1l-2,-2l-12,-1l-6,-5l-4,-7l-7,-10l-6,-12l-9,-10l-3,-6l-22,-22l-5,-2l-10,-9l-32,-16l-9,-2l-3,-2l-16,-2l-5,-2l-56,0l-3,2l-12,2l-3,2l-11,3l-7,2l-19,9l-8,6l-18,12l-32,32l-54,86l-6,12l-7,8l-2,1l-17,0l-12,-6l-3,-3l-4,-9l0,-10l68,-112l41,-41l10,-6l10,-7l20,-11l19,-9l7,-3l6,-2l2,-1l13,-2l2,-2l18,-1l66,-3zm27,486l-10,1l-18,5l-10,3l-12,4l-17,9l-6,3l-6,5l-6,3l-9,6l-8,7l-204,172l172,176l4,-2l7,-7l4,-7l14,-16l7,-11l9,-13l15,-30l8,-17l8,-25l66,-260l0,-5l-1,-1l-7,0zm-808,243l-255,215l-4,3l1,3l10,8l5,3l5,4l21,10l11,6l15,4l618,0l13,-1l2,-2l20,-1l6,-2l2,-1l17,-2l0,-2l12,-1l7,-3l10,-1l3,-2l11,-3l6,-2l5,-2l1,-1l10,-2l2,-2l9,-2l46,-23l9,-6l16,-9l-2,-4l-170,-170l-34,26l-5,2l-8,6l-9,6l-19,10l-24,11l-30,10l-16,4l-1,1l-16,2l-4,2l-20,2l-4,2l-65,0l-8,-2l-21,-3l-20,-4l-20,-6l-14,-5l-9,-3l-17,-8l-19,-10l-15,-8l-5,-4l-5,-3l-5,-4l-6,-3l-7,-6l-3,-3l-6,-3l-8,-8l-17,-13l-2,0z" fill="#0E0D0D" id="svg_1"/>
  <path d="m230,452l368,0l11,11l2,7l0,9l-2,7l-7,8l-5,4l-368,0l-11,-11l-2,-3l0,-12l6,-12l5,-3l3,-5z" fill="#0E0D0D" id="svg_2"/>
  <path d="m314,595l257,0l5,3l7,6l4,9l0,15l-5,9l-4,4l-6,2l-1,1l-11,1l-245,0l-7,-4l-8,-7l-3,-4l-3,-6l0,-8l6,-11l7,-6l7,-4z" fill="#0E0D0D" id="svg_3"/>
  <path d="m331,741l213,0l10,4l3,4l3,7l0,18l-7,8l-5,5l-8,1l-210,0l-6,-2l-8,-4l-4,-7l-3,-6l0,-9l6,-11l5,-1l2,-6l9,-1z" fill="#0E0D0D" id="svg_4"/>
  <path d="m458,305l154,0l11,6l6,10l1,4l0,12l-6,11l-3,3l-7,3l-2,1l-155,0l-11,-7l-5,-6l-1,-2l0,-19l4,-7l6,-5l8,-4z" fill="#0E0D0D" id="svg_5"/>
  <path d="m28,452l121,0l12,12l1,2l0,18l-4,9l-8,4l-4,1l-117,0l-5,-4l-6,-9l-3,-6l1,-10l5,-10l7,-7z" fill="#0E0D0D" id="svg_6"/>
  <path d="m173,741l71,0l5,3l6,8l4,9l0,9l-5,9l-5,5l-5,2l-1,1l-19,1l-55,0l-4,-2l-7,-8l-3,-3l-1,-9l0,-7l3,-7l10,-10l6,-1z" fill="#0E0D0D" id="svg_7"/>
  <path d="m175,595l51,0l11,6l6,11l1,13l-1,7l-9,9l-7,3l-10,1l-45,0l-7,-4l-7,-6l-4,-11l0,-7l3,-9l3,-6l4,-3l10,-3l1,-1z" fill="#0E0D0D" id="svg_8"/>
  <path d="m319,305l49,0l11,6l4,5l3,7l1,9l-2,8l-5,8l-3,3l-10,4l-49,0l-11,-7l-5,-5l-1,-3l0,-20l6,-8l10,-6l2,-1z" fill="#0E0D0D" id="svg_9"/>
  <path d="m1750,146l18,1l8,7l5,6l4,9l0,18l-6,11l-8,7l-7,3l-25,0l-5,-3l-8,-7l-3,-4l-4,-10l0,-11l3,-9l3,-6l7,-7l9,-4l9,-1z" fill="#0E0D0D" id="svg_10"/>
 </g>

</svg>